<svg width="900" height="272" viewBox="0 0 900 272" fill="none" xmlns="http://www.w3.org/2000/svg">
<path d="M56.7129 43.6963C72.9571 43.6963 86.5244 49.7954 96.0342 60.2686C105.548 70.7457 111.03 85.6345 111.03 103.257V109.641H29.583L29.6729 110.218C31.7803 123.721 42.8574 135.078 61.7129 135.078C66.4284 135.078 71.9572 134.12 77.1973 132.297C82.2293 130.546 87.0266 127.984 90.5898 124.675L102.941 142.761C92.1835 152.442 75.2539 157.483 58.4375 157.483C41.9156 157.483 27.4346 151.93 17.0879 142.048C6.74412 132.168 0.500056 117.933 0.5 100.504C0.5 69.0998 23.9073 43.6963 56.7129 43.6963ZM56.7129 66.2725C47.6212 66.2725 41.1097 69.4635 36.7217 74.0645C32.3441 78.6546 30.1103 84.6156 29.4971 90.123L29.4355 90.6777H84.4922L84.4473 90.1377C84.009 84.7992 81.9489 78.832 77.5459 74.1943C73.1323 69.5456 66.4024 66.2725 56.7129 66.2725Z" fill="#222222" stroke="#222222"/>
<path d="M141.101 46.4497L180.373 99.1235L107.316 195.688H90.2969L163.126 99.4282L163.353 99.1294L163.128 98.8276L124.075 46.4497H141.101ZM223.622 154.902H206.592L182.998 122.875L191.513 111.327L223.622 154.902ZM240.173 20.8071L191.688 86.9194L183.169 75.2065L223.141 20.8071H240.173Z" fill="#222222" stroke="#222222"/>
<path d="M293.908 43.6963C315.884 43.6963 329.297 53.1915 336.513 62.9258L318.462 79.9521C313.186 72.5411 305.227 68.5107 295.287 68.5107C286.457 68.5108 278.909 71.6992 273.57 77.3359C268.233 82.9709 265.138 91.0168 265.138 100.676C265.138 110.249 268.234 118.337 273.568 124.035C278.905 129.736 286.453 133.014 295.287 133.014C305.245 133.014 313.195 128.474 318.46 121.221L336.511 138.083C329.292 147.823 315.88 157.483 293.908 157.483C260.562 157.483 236.316 133.951 236.315 100.504C236.315 67.2305 260.561 43.6963 293.908 43.6963Z" fill="#222222" stroke="#222222"/>
<path d="M405.787 43.6963C422.031 43.6963 435.599 49.7954 445.108 60.2686C454.532 70.6465 460 85.3528 460.103 102.757H459.929V109.641H378.479L378.568 110.218C380.678 123.721 391.759 135.078 410.608 135.078C415.326 135.078 420.898 134.121 426.181 132.298C431.254 130.547 436.094 127.985 439.665 124.675L452.016 142.761C441.254 152.442 424.326 157.483 407.507 157.483C390.987 157.483 376.508 151.93 366.162 142.048C355.819 132.168 349.575 117.933 349.575 100.504C349.575 69.0999 372.982 43.6964 405.787 43.6963ZM405.611 66.2725C396.522 66.2725 390.01 69.4635 385.622 74.0645C381.245 78.6545 379.011 84.6156 378.397 90.123L378.336 90.6777H433.392L433.347 90.1367C432.908 84.7984 430.849 78.8319 426.446 74.1943C422.033 69.5455 415.303 66.2725 405.611 66.2725Z" fill="#222222" stroke="#222222"/>
<path d="M509.749 4.80225V154.902H481.96V4.80225H509.749Z" fill="#222222" stroke="#222222"/>
<path d="M578.161 43.6963C596.126 43.6964 610.721 49.8912 621.473 58.2979L610.46 77.8232C603.703 71.0468 591.422 65.4122 578.161 65.4121C572.927 65.4121 568.518 66.5444 565.4 68.501C562.274 70.4625 560.424 73.274 560.424 76.583C560.424 78.7905 561.56 80.4657 563.429 81.7773C565.279 83.0754 567.887 84.0483 570.946 84.8867C574.012 85.7271 577.585 86.4456 581.388 87.21C585.198 87.9756 589.247 88.7891 593.293 89.8232C601.396 91.8937 609.428 94.8345 615.431 99.9775C621.41 105.1 625.411 112.435 625.411 123.393C625.411 133.303 621.175 141.847 613.197 147.927C605.207 154.016 593.43 157.655 578.335 157.655C559.632 157.655 541.474 151.426 530.016 141.022L541.91 120.907C546.082 124.68 552.015 128.326 558.557 131.061C565.343 133.896 572.82 135.767 579.711 135.767C586.052 135.767 590.777 134.598 593.932 132.5C597.113 130.384 598.662 127.344 598.662 123.736C598.662 121.317 597.555 119.455 595.686 117.987C593.838 116.536 591.232 115.456 588.176 114.55C585.113 113.642 581.547 112.894 577.751 112.132C573.948 111.368 569.91 110.588 565.871 109.612C557.785 107.659 549.773 104.936 543.787 100.067C537.828 95.221 533.843 88.2221 533.843 77.6152C533.843 59.7312 549.392 43.6963 578.161 43.6963Z" fill="#222222" stroke="#222222"/>
<path d="M675.232 46.4492V154.902H647.444V46.4492H675.232ZM661.255 0.5C670.632 0.500249 677.99 7.8524 677.99 17.0371C677.99 26.2254 670.461 33.7468 661.255 33.7471C652.217 33.7471 644.687 26.3975 644.687 17.0371C644.687 7.68341 652.21 0.5 661.255 0.5Z" fill="#222222" stroke="#222222"/>
<path d="M755.197 43.6963C773.257 43.6963 787.647 50.2299 797.523 60.5791C807.403 70.9325 812.792 85.1321 812.792 100.504C812.792 131.229 791.271 157.483 755.197 157.483C719.476 157.483 697.954 131.231 697.954 100.504C697.954 69.7791 719.474 43.6965 755.197 43.6963ZM755.197 68.5107C746.085 68.5109 738.962 72.2344 734.126 78.1367C729.299 84.0287 726.773 92.0641 726.773 100.676C726.773 109.287 729.3 117.364 734.125 123.299C738.96 129.244 746.083 133.014 755.197 133.014C764.397 133.014 771.564 129.245 776.421 123.3C781.27 117.365 783.797 109.288 783.797 100.676C783.797 92.1497 781.27 84.1152 776.421 78.2021C771.564 72.2786 764.397 68.5107 755.197 68.5107Z" fill="#222222" stroke="#222222"/>
<path d="M898.124 70.9648C896.133 70.5446 893.819 70.4033 890.693 70.4033C885.782 70.4033 880.153 71.7575 875.145 73.9961C870.143 76.2317 865.698 79.3782 863.212 83.0117L863.125 83.1396V155.074H835.337V46.6221H863.125V62.1445L864.011 61.0674C871.77 51.6378 884.852 43.8908 898.124 43.7002V70.9648Z" fill="#222222" stroke="#222222"/>
<path d="M56.7129 43.6963C73.0447 43.6963 86.6114 49.7536 96.0986 60.2041C105.59 70.6588 111.03 85.547 111.03 103.257V109.469H29.584L29.6729 110.045C30.7241 116.868 34.0123 123.09 39.4131 127.605C44.8152 132.122 52.3029 134.906 61.7129 134.906C66.428 134.906 71.9993 133.949 77.2607 132.126C82.3072 130.377 87.1035 127.818 90.5918 124.51L102.942 142.76C92.1845 152.441 75.2544 157.483 58.4375 157.483C41.9156 157.483 27.4346 151.93 17.0879 142.048C6.74412 132.168 0.500056 117.933 0.5 100.504C0.5 69.0998 23.9073 43.6963 56.7129 43.6963ZM56.7129 66.2725C47.6238 66.2725 41.0689 69.4183 36.6582 73.998C32.257 78.5679 30.022 84.5326 29.4961 90.1318L29.4453 90.6777H84.4922L84.4473 90.1377C84.0088 84.7964 81.9043 78.8297 77.4805 74.1934C73.0464 69.5463 66.3173 66.2725 56.7129 66.2725Z" fill="#222222" stroke="#222222"/>
<path d="M142.31 44.5566L183.133 99.2959L108.525 197.926H86.376L160.714 99.4287L160.94 99.1289L160.716 98.8281L120.284 44.5566H142.31ZM227.759 156.796H205.73L180.59 122.877L191.686 108.053L227.759 156.796ZM243.965 18.7422L191.518 90.0205L180.586 75.0332L221.935 18.7422H243.965Z" fill="#222222" stroke="#222222"/>
<path d="M293.908 43.6963C315.879 43.6963 329.292 53.1877 336.51 62.7568L318.467 79.7764C313.188 72.2006 305.222 68.3389 295.287 68.3389C286.455 68.3389 278.907 71.5719 273.569 77.2295C268.234 82.885 265.138 90.9301 265.138 100.504C265.138 110.162 268.233 118.292 273.567 124.013C278.904 129.735 286.453 133.014 295.287 133.014C305.24 133.014 313.194 128.642 318.462 121.227L336.513 138.252C329.295 147.993 315.882 157.654 293.909 157.654C260.561 157.483 236.316 133.95 236.315 100.504C236.315 67.2305 260.561 43.6963 293.908 43.6963Z" fill="#222222" stroke="#222222"/>
<path d="M405.787 43.6963C422.117 43.6963 435.683 49.7537 445.171 60.2041C454.663 70.6589 460.104 85.547 460.104 103.257V109.469H378.655L378.744 110.045C379.797 116.868 383.084 123.09 388.484 127.605C393.886 132.122 401.373 134.906 410.784 134.906C415.498 134.906 421.07 133.949 426.332 132.126C431.379 130.377 436.177 127.818 439.667 124.51L452.017 142.76C441.255 152.441 424.326 157.483 407.507 157.483C390.987 157.483 376.508 151.93 366.162 142.048C355.819 132.168 349.575 117.933 349.575 100.504C349.575 69.0999 372.982 43.6964 405.787 43.6963ZM405.787 66.2725C396.696 66.2725 390.142 69.4185 385.73 73.998C381.329 78.5678 379.093 84.5318 378.564 90.1309L378.513 90.6777H433.576L433.521 90.1289C432.993 84.7945 430.891 78.8305 426.49 74.1943C422.078 69.5467 415.393 66.2725 405.787 66.2725Z" fill="#222222" stroke="#222222"/>
<path d="M509.749 4.80225V154.902H481.96V4.80225H509.749Z" fill="#222222" stroke="#222222"/>
<path d="M578.335 43.8682C596.466 43.8682 610.899 50.0628 621.641 58.4697L610.632 77.832C603.865 71.2144 591.43 65.4121 578.335 65.4121C573.016 65.4122 568.606 66.544 565.508 68.502C562.401 70.4662 560.6 73.2789 560.6 76.583C560.6 78.791 561.739 80.4663 563.613 81.7773C565.468 83.075 568.082 84.0477 571.149 84.8848C574.223 85.7238 577.805 86.4398 581.618 87.2012C585.437 87.9639 589.497 88.7738 593.554 89.8027C601.678 91.8626 609.731 94.7869 615.75 99.9062C621.745 105.005 625.754 112.308 625.754 123.221C625.754 133.131 621.519 141.719 613.54 147.842C605.55 153.973 593.775 157.654 578.682 157.654C559.458 157.484 541.469 151.421 530.016 141.023L541.905 121.084C546 124.857 551.933 128.5 558.492 131.232C565.299 134.068 572.821 135.939 579.711 135.939C585.973 135.939 590.696 134.726 593.87 132.607C597.065 130.474 598.662 127.438 598.662 123.909C598.662 121.49 597.555 119.628 595.686 118.16C593.838 116.709 591.232 115.629 588.176 114.723C585.113 113.815 581.547 113.067 577.751 112.305C573.948 111.541 569.91 110.76 565.871 109.784C557.785 107.831 549.773 105.108 543.787 100.239C537.828 95.3929 533.843 88.394 533.843 77.7871C533.843 68.7319 537.741 60.2675 545.235 54.0576C552.733 47.8445 563.86 43.8683 578.335 43.8682Z" fill="#222222" stroke="#222222"/>
<path d="M675.233 46.4492V154.902H647.445V46.4492H675.233ZM661.424 0.5C670.639 0.500247 678.159 7.68673 678.159 17.0371C678.159 26.3942 670.633 33.7468 661.424 33.7471C652.224 33.7471 644.855 26.232 644.855 17.0371C644.856 7.85239 652.39 0.5 661.424 0.5Z" fill="#222222" stroke="#222222"/>
<path d="M755.373 43.6963C773.432 43.6963 787.822 50.2299 797.699 60.5791C807.579 70.9325 812.968 85.1321 812.968 100.504C812.968 131.229 791.447 157.483 755.373 157.483C719.475 157.483 697.954 131.23 697.954 100.504C697.954 69.7801 719.473 43.6965 755.373 43.6963ZM755.197 68.3389C746.083 68.339 738.961 72.1074 734.126 78.0303C729.301 83.9429 726.773 91.9773 726.773 100.504C726.773 109.201 729.3 117.321 734.125 123.277C738.96 129.244 746.083 133.014 755.197 133.014C764.397 133.014 771.565 129.246 776.422 123.278C781.271 117.322 783.797 109.201 783.797 100.504C783.797 91.8923 781.27 83.8572 776.42 77.9648C771.562 72.062 764.395 68.3389 755.197 68.3389Z" fill="#222222" stroke="#222222"/>
<path d="M898.124 70.793C896.133 70.3732 893.819 70.2314 890.693 70.2314C885.867 70.2315 880.236 71.6304 875.209 73.8896C870.189 76.1457 865.702 79.2905 863.216 82.835L863.125 82.9648V154.902H835.337V46.4502H863.125V62.125L864.008 61.0713C871.768 51.8093 884.851 44.0627 898.124 43.8721V70.793Z" fill="#222222" stroke="#222222"/>
<path d="M479.91 204.433C491.228 204.433 497.94 208.98 502.839 215.062L496.873 220.407C492.521 214.739 487.124 212.382 480.422 212.382C473.477 212.382 467.78 215.064 463.824 219.587C459.874 224.104 457.689 230.423 457.689 237.664C457.69 244.904 459.875 251.223 463.824 255.74C467.78 260.263 473.477 262.946 480.422 262.946C487.132 262.946 492.522 260.418 496.868 254.753L502.843 260.259C497.944 266.343 491.232 270.892 479.913 270.893C461.082 270.723 448.345 256.181 448.345 237.492C448.345 218.804 461.08 204.433 479.91 204.433Z" fill="#222222" stroke="#222222"/>
<path d="M548.531 213.512C547.504 213.369 546.435 213.243 545.242 213.243C542.023 213.243 538.271 214.531 534.972 216.451C531.673 218.37 528.748 220.964 527.227 223.649L527.162 223.764V268.829H518.161V205.982H527.162V217.105L528.059 215.94C533.062 209.438 540.165 204.627 548.531 204.442V213.512Z" fill="#222222" stroke="#222222"/>
<path d="M589.544 204.433C599.141 204.433 606.712 208.159 611.892 214.239C617.079 220.327 619.895 228.81 619.895 238.352V240.433H567.974L568.012 240.969C568.451 247.094 570.776 252.759 574.79 256.899C578.809 261.044 584.498 263.633 591.607 263.633C598.955 263.633 606.302 260.811 611.551 255.638L615.764 261.354C609.353 267.439 600.975 270.892 590.922 270.893C581.304 270.808 573.161 267.411 567.424 261.579C561.687 255.746 558.323 247.444 558.323 237.492C558.323 219.146 571.405 204.433 589.544 204.433ZM589.369 211.694C582.318 211.694 577.053 214.647 573.494 218.862C569.945 223.064 568.101 228.507 567.836 233.506L567.808 234.033H611.079L611.07 233.524C610.984 228.608 609.315 223.159 605.785 218.929C602.242 214.686 596.844 211.694 589.369 211.694Z" fill="#222222" stroke="#222222"/>
<path d="M661.767 204.433C668.597 204.433 674.679 205.969 679.042 209.362C683.385 212.739 686.089 218.004 686.089 225.617V269.173H677.096V261.125L676.221 262.114C671.156 267.843 663.89 270.894 655.219 270.894C644.546 270.894 633.311 263.812 633.311 250.054C633.311 242.972 636.091 237.823 640.196 234.435C644.314 231.037 649.797 229.386 655.219 229.386C663.9 229.386 670.991 232.101 676.227 237.829L677.096 238.78V225.961C677.096 221.595 675.303 218.094 672.295 215.696C669.298 213.307 665.128 212.038 660.392 212.038C652.684 212.038 646.463 214.55 640.799 220.68L636.723 214.66C643.466 207.734 651.524 204.433 661.767 204.433ZM677.096 243.695L676.998 243.563C673.083 238.239 666.02 235.443 659.008 235.443C649.314 235.443 642.479 241.458 642.479 249.882C642.48 254.153 644.176 257.818 647.107 260.411C650.032 262.997 654.159 264.49 658.996 264.493V264.494C666.189 264.669 673.089 261.867 677.003 256.368L677.096 256.238V243.695Z" fill="#222222" stroke="#222222"/>
<path d="M718.5 188.428V205.982H731.602V213.759H718.332V254.185C718.332 256.656 718.859 258.837 719.996 260.415C721.149 262.014 722.897 262.946 725.204 262.946C727.884 262.946 730.297 261.852 731.736 260.584L734.269 267.122C731.804 269.319 728.361 270.892 722.971 270.893C718.323 270.808 714.939 269.463 712.71 267.034C710.476 264.598 709.331 260.995 709.331 256.25V213.759H698.642V205.982H709.331V188.428H718.5Z" fill="#222222" stroke="#222222"/>
<path d="M755.392 205.981V269.174H746.391V205.981H755.392ZM750.888 183.438C754.401 183.438 757.11 186.303 757.11 189.649C757.11 193.158 754.409 195.86 750.888 195.86C747.533 195.86 744.664 193.15 744.664 189.649C744.664 186.148 747.533 183.438 750.888 183.438Z" fill="#222222" stroke="#222222"/>
<path d="M776.756 205.982L798.007 258.332L798.471 259.473L798.934 258.332L820.177 205.982H829.954L803.654 269.173H793.287L766.979 205.982H776.756Z" fill="#222222" stroke="#222222"/>
<path d="M869.142 204.433C878.742 204.433 886.316 208.159 891.496 214.239C896.684 220.327 899.5 228.81 899.5 238.352V240.433H847.579L847.617 240.968C848.052 247.093 850.375 252.759 854.389 256.899C858.408 261.044 864.099 263.633 871.212 263.633C878.553 263.633 885.9 260.811 891.149 255.638L895.37 261.354C888.959 267.44 880.58 270.892 870.527 270.893C860.905 270.808 852.763 267.411 847.026 261.579C841.29 255.746 837.928 247.444 837.928 237.492C837.928 219.145 851.01 204.433 869.142 204.433ZM868.974 211.694C861.923 211.694 856.658 214.647 853.099 218.862C849.55 223.064 847.706 228.507 847.441 233.506L847.413 234.033H890.684L890.675 233.524C890.585 228.608 888.917 223.159 885.388 218.929C881.846 214.686 876.449 211.694 868.974 211.694Z" fill="#222222" stroke="#222222"/>
<path d="M410.108 231.453V248.522H9.46436V231.453H410.108Z" fill="#222222" stroke="#222222"/>
</svg>
